PathFileType	4	(X/Y/Z)	C:/Users/beibeiliu/ov580/test_trc\sequence.17_training_dense_left.trc
DataRate	CameraRate	NumFrames	NumMarkers	Units	OrigDataRate	OrigDataStartFrame	OrigNumFrames
120	120	9	19	mm	120	1	303
Frame#	Time	ThumbCMC			ThumbMCP			ThumbIP			ThumbTip			IndexMCP			IndexPIP			IndexTip			MiddleMCP			MiddlePIP			MiddleTip			RingMCP			RingPIP			RingTip			PinkyMCP			PinkyPIP			PinkyTip			BackHand1			BackHand2			BackHand3	
		X0	Y0	Z0	X1	Y1	Z1	X2	Y2	Z2	X3	Y3	Z3	X4	Y4	Z4	X5	Y5	Z5	X6	Y6	Z6	X7	Y7	Z7	X8	Y8	Z8	X9	Y9	Z9	X10	Y10	Z10	X11	Y11	Z11	X12	Y12	Z12	X13	Y13	Z13	X14	Y14	Z14	X15	Y15	Z15	X16	Y16	Z16	X17	Y17	Z17	X18	Y18	Z18	
0	0	-146.993	-15.2188	43.383	-131.756	-23.0556	25.9618	-115.804	-23.8673	8.19475	-102.609	-25.6473	-8.14374	-154.129	-21.7653	-25.1819	-147.494	-26.8044	-44.887	-140.934	-28.804	-71.282	-175.862	-22.387	-33.3382	-177.306	-26.5641	-56.3124	-180.371	-31.5602	-81.0883	-194.64	-23.4386	-28.0376	-197.71	-25.8037	-45.1618	-201.576	-28.7501	-65.8684	-217.606	-26.3508	-12.1273	-222.042	-29.2737	-25.3689	-226.647	-28.055	-45.7035	-193.635	-6.91203	11.826	-194.582	2.39143	41.2101	-168.914	-0.718823	24.8225	
1	0.00833333	-151.887	-16.082	41.301	-134.443	-21.6227	24.6981	-124.509	-24.3349	6.2426	-107.397	-25.4587	-8.64579	-158.122	-21.8827	-26.7186	-152.424	-26.5564	-49.3243	-146.843	-30.1483	-72.5362	-178.981	-23.0835	-35.6588	-180.145	-26.6003	-53.4205	-184.522	-31.5158	-80.6019	-202.87	-22.911	-25.4536	-200.953	-26.749	-45.253	-205.935	-28.8417	-70.4601	-217.795	-26.2036	-8.24189	-227.941	-28.7006	-29.4376	-232.883	-26.3079	-43.0106	-199.556	-7.31543	16.0203	-196.786	2.77183	38.7159	-171.47	-2.03603	23.5752	
2	0.0166667	-155.017	-16.8999	43.2988	-139.852	-22.8154	26.8934	-123.626	-23.696	4.00531	-113.622	-25.5698	-5.36955	-155.849	-22.8618	-29.2299	-156.099	-26.9194	-47.0292	-146.791	-29.8318	-67.902	-184.576	-22.267	-32.1581	-183.874	-27.4121	-54.2026	-184.859	-31.1937	-78.5544	-200.792	-23.2415	-23.5165	-205.143	-27.8853	-49.1952	-210.184	-29.8322	-68.7747	-222.682	-25.5142	-8.84161	-230.623	-29.3586	-26.5481	-234.939	-28.9019	-43.0367	-203.222	-6.90865	15.6832	-199.206	0.842656	39.2089	-176.219	-1.82478	26.6156	
3	0.025	-154.078	-16.2589	38.8597	-142.323	-22.8996	23.7597	-127.985	-24.2773	5.57219	-115.268	-25.7345	-3.39751	-161.347	-23.131	-28.8741	-154.21	-26.7528	-49.6147	-155.13	-29.9532	-67.4178	-184.938	-22.4996	-30.5945	-187.212	-27.8834	-56.1596	-190.79	-31.9933	-79.061	-203.302	-23.9242	-25.9609	-208.552	-28.3258	-47.4215	-210.031	-30.2042	-63.7585	-220.474	-26.7994	-8.15154	-228.774	-28.6057	-27.05	-237.688	-26.7478	-42.05	-203.848	-8.93115	13.3499	-205.323	0.668296	38.1903	-177.029	-2.24904	23.768	
4	0.0333333	-160.418	-17.049	42.6047	-142.556	-22.4413	22.5831	-127.407	-24.1718	7.7804	-114.234	-25.4252	-4.07559	-161.132	-22.1742	-25.0513	-158.555	-26.2002	-44.5122	-152.539	-28.6932	-66.0393	-185.084	-22.6739	-36.08	-186.729	-29.3955	-58.045	-190.331	-32.1496	-77.4551	-210.226	-25.0216	-24.1323	-209.831	-28.3189	-48.554	-215.08	-31.6965	-67.6437	-228.629	-27.3362	-8.67351	-229.588	-29.5896	-25.5478	-240.279	-27.1381	-41.7668	-206.727	-7.29752	14.0305	-201.601	0.995726	37.1385	-179.894	-3.27472	24.1256	
5	0.0416667	-161.442	-16.5443	38.6975	-145.478	-22.1443	23.5305	-131.11	-23.9003	3.92825	-115.376	-25.4118	-4.88126	-162.37	-21.9952	-23.5658	-162.703	-26.8614	-48.7377	-155.069	-29.055	-66.0196	-191.027	-23.2591	-34.4779	-189.332	-28.0392	-55.2193	-195.436	-33.1523	-78.2204	-212.597	-24.4476	-23.9246	-214.74	-28.4551	-47.6583	-217.973	-31.3674	-64.1918	-228.165	-25.6377	-8.64444	-231.368	-28.9291	-23.4032	-242.418	-29.344	-40.9557	-205.151	-6.3924	17.7611	-205.703	1.20034	39.5014	-178.336	-2.538	25.6881	
6	0.05	-160.468	-15.5288	39.0679	-144.421	-21.4109	22.956	-134.229	-25.3856	7.79956	-119.978	-25.4072	-5.41123	-167.387	-22.2743	-29.1667	-161.289	-26.6314	-44.4601	-158.938	-29.167	-66.9384	-193.563	-23.1359	-35.0233	-190.744	-27.6067	-52.9908	-195.187	-32.2562	-80.3213	-209.131	-23.8766	-22.2897	-214.538	-28.2771	-44.936	-216.069	-30.2862	-68.5086	-231.95	-26.2266	-8.27793	-237.189	-29.5524	-27.8044	-244.14	-28.7162	-42.5136	-205.686	-8.21237	18.4829	-208.695	1.81499	41.1174	-183.126	-0.338631	26.5222	
7	0.0583333	-162.167	-14.9814	43.1492	-146.884	-21.951	25.1746	-131.758	-22.4835	4.12702	-118.561	-24.1973	-5.18403	-167.954	-21.3218	-28.5517	-161.864	-27.0089	-49.8797	-161.663	-28.7803	-67.9881	-193.25	-23.049	-35.3636	-193.486	-27.9441	-54.3347	-193.65	-33.3038	-83.3921	-210.693	-23.4023	-24.1659	-218.735	-28.2289	-45.6208	-220.128	-30.871	-65.0445	-233.715	-25.1401	-11.1908	-236.491	-28.7982	-25.1866	-246.033	-29.0203	-45.9329	-212.472	-7.54005	17.8953	-209.85	1.3921	38.8065	-181.496	0.338872	24.9122	
8	0.0666667	-164.374	-15.7822	39.2568	-149.711	-21.9578	20.8824	-138.474	-23.7394	3.46486	-122.359	-23.7938	-11.3944	-170.308	-20.8352	-27.1893	-165.574	-26.2338	-51.747	-158.626	-29.6633	-72.9551	-194.67	-21.5538	-32.9409	-198.546	-27.8733	-58.553	-198.595	-32.5358	-81.4743	-215.126	-22.9549	-26.317	-220.387	-27.3496	-45.8884	-219.79	-30.6263	-68.7575	-234.669	-24.7221	-7.15034	-238.286	-27.8505	-24.7341	-248.378	-27.7821	-44.2055	-211.719	-8.03908	15.522	-212.309	1.67665	41.0845	-185.343	-1.44377	25.4318	
